<svg xmlns="http://www.w3.org/2000/svg" viewBox="0 0 1200.48 1696.94"><rect x="0" y="0" width="1200.48" height="1696.94" fill="#FFC864FF" stroke="#C86496FF" stroke-width="0.01" /><line x1="85.7252" y1="0" x2="85.7252" y2="1696.94" stroke="#C864967F" stroke-width="0.5" /><line x1="1114.7548" y1="0" x2="1114.7548" y2="1696.94" stroke="#C864967F" stroke-width="0.5" /><line x1="0" y1="85.7252" x2="1200.48" y2="85.7252" stroke="#C864967F" stroke-width="0.5" /><line x1="0" y1="1611.2147" x2="1200.48" y2="1611.2147" stroke="#C864967F" stroke-width="0.5" /><line x1="135.72519" y1="255.72519" x2="135.72519" y2="400.7252" stroke="#C86496FF" stroke-width="1" /><line x1="769.24524" y1="255.72519" x2="769.24524" y2="400.7252" stroke="#C86496FF" stroke-width="1" /><line x1="1114.7552" y1="255.72519" x2="1114.7552" y2="400.7252" stroke="#C86496FF" stroke-width="1" /><line x1="230.50519" y1="320.1052" x2="266.90518" y2="323.4161" stroke="#000000FF" stroke-width="1.5" /><line x1="230.50519" y1="322.40518" x2="303.5052" y2="326.7452" stroke="#000000FF" stroke-width="1.5" /><line x1="346.59518" y1="325.1052" x2="419.59518" y2="322.86703" stroke="#000000FF" stroke-width="1.5" /><line x1="346.59518" y1="327.40518" x2="456.18518" y2="321.7452" stroke="#000000FF" stroke-width="1.5" /><line x1="511.08517" y1="331.34518" x2="547.8752" y2="323.80524" stroke="#000000FF" stroke-width="1.5" /><line x1="511.08517" y1="329.0452" x2="584.2752" y2="316.34518" stroke="#000000FF" stroke-width="1.5" /><line x1="639.1652" y1="316.34518" x2="675.9552" y2="333.06836" stroke="#000000FF" stroke-width="1.5" /><line x1="639.1652" y1="314.0452" x2="712.5552" y2="349.70517" stroke="#000000FF" stroke-width="1.5" /><line x1="806.1652" y1="297.40518" x2="872.44525" y2="290.5052" stroke="#000000FF" stroke-width="1.5" /><line x1="806.1652" y1="295.1052" x2="872.44525" y2="290.5052" stroke="#000000FF" stroke-width="1.5" /><line x1="806.1652" y1="292.80518" x2="872.44525" y2="290.5052" stroke="#000000FF" stroke-width="1.5" /><line x1="806.1652" y1="290.5052" x2="872.44525" y2="290.5052" stroke="#000000FF" stroke-width="1.5" /><line x1="894.5452" y1="297.40518" x2="960.82526" y2="285.5052" stroke="#000000FF" stroke-width="1.5" /><line x1="894.5452" y1="295.1052" x2="960.82526" y2="285.5052" stroke="#000000FF" stroke-width="1.5" /><line x1="894.5452" y1="292.80518" x2="960.82526" y2="285.5052" stroke="#000000FF" stroke-width="1.5" /><line x1="894.5452" y1="290.5052" x2="960.82526" y2="285.5052" stroke="#000000FF" stroke-width="1.5" /><line x1="982.9152" y1="292.40518" x2="1049.2052" y2="265.5052" stroke="#000000FF" stroke-width="1.5" /><line x1="982.9152" y1="290.1052" x2="1049.2052" y2="265.5052" stroke="#000000FF" stroke-width="1.5" /><line x1="982.9152" y1="287.80518" x2="1049.2052" y2="265.5052" stroke="#000000FF" stroke-width="1.5" /><line x1="982.9152" y1="285.5052" x2="1049.2052" y2="265.5052" stroke="#000000FF" stroke-width="1.5" /><line x1="135.72519" y1="255.72519" x2="1114.7552" y2="255.72519" stroke="#C86496FF" stroke-width="1" /><line x1="135.72519" y1="265.7252" x2="1114.7552" y2="265.7252" stroke="#C86496FF" stroke-width="1" /><line x1="135.72519" y1="275.7252" x2="1114.7552" y2="275.7252" stroke="#C86496FF" stroke-width="1" /><line x1="135.72519" y1="285.7252" x2="1114.7552" y2="285.7252" stroke="#C86496FF" stroke-width="1" /><line x1="135.72519" y1="295.7252" x2="1114.7552" y2="295.7252" stroke="#C86496FF" stroke-width="1" /><line x1="135.72519" y1="360.7252" x2="1114.7552" y2="360.7252" stroke="#C86496FF" stroke-width="1" /><line x1="135.72519" y1="370.7252" x2="1114.7552" y2="370.7252" stroke="#C86496FF" stroke-width="1" /><line x1="135.72519" y1="380.7252" x2="1114.7552" y2="380.7252" stroke="#C86496FF" stroke-width="1" /><line x1="135.72519" y1="390.7252" x2="1114.7552" y2="390.7252" stroke="#C86496FF" stroke-width="1" /><line x1="135.72519" y1="400.7252" x2="1114.7552" y2="400.7252" stroke="#C86496FF" stroke-width="1" /><rect x="230.50519" y="265.7252" width="11.800003" height="10" fill="#00000000" stroke="#FF0000FF" stroke-width="0.25" /><line x1="230.50519" y1="270.7252" x2="242.30519" y2="270.7252" stroke="#FF0000FF" stroke-width="0.2" /><rect x="230.50519" y="265.7252" width="2.0800018" height="2" fill="#FF0000FF" stroke="none" stroke-width="0" /><rect x="239.90518" y="273.68518" width="2.4000092" height="2.0400085" fill="#FF0000FF" stroke="none" stroke-width="0" /><text x="230.50519" y="270.7252" fill="#C86496FF" font-size="40" font-family="bravura" text-anchor="start" dominant-baseline="baseline"></text><line x1="231.00519" y1="272.40518" x2="231.00519" y2="322.40518" stroke="#C86496FF" stroke-width="1" /><rect x="255.1052" y="355.7252" width="11.799988" height="10" fill="#00000000" stroke="#FF0000FF" stroke-width="0.25" /><line x1="255.1052" y1="360.7252" x2="266.90518" y2="360.7252" stroke="#FF0000FF" stroke-width="0.2" /><rect x="255.1052" y="355.7252" width="2.0799866" height="2" fill="#FF0000FF" stroke="none" stroke-width="0" /><rect x="264.5052" y="363.68518" width="2.399994" height="2.0400085" fill="#FF0000FF" stroke="none" stroke-width="0" /><text x="255.1052" y="360.7252" fill="#C86496FF" font-size="40" font-family="bravura" text-anchor="start" dominant-baseline="baseline"></text><line x1="266.40518" y1="359.0452" x2="266.40518" y2="325.7161" stroke="#C86496FF" stroke-width="1" /><rect x="291.7052" y="375.7252" width="11.799988" height="10" fill="#00000000" stroke="#FF0000FF" stroke-width="0.25" /><line x1="291.7052" y1="380.7252" x2="303.5052" y2="380.7252" stroke="#FF0000FF" stroke-width="0.2" /><rect x="291.7052" y="375.7252" width="2.0799866" height="2" fill="#FF0000FF" stroke="none" stroke-width="0" /><rect x="301.1052" y="383.68518" width="2.399994" height="2.0400085" fill="#FF0000FF" stroke="none" stroke-width="0" /><text x="291.7052" y="380.7252" fill="#C86496FF" font-size="40" font-family="bravura" text-anchor="start" dominant-baseline="baseline"></text><line x1="303.0052" y1="379.0452" x2="303.0052" y2="329.0452" stroke="#C86496FF" stroke-width="1" /><rect x="346.59518" y="270.7252" width="11.799988" height="10" fill="#00000000" stroke="#FF0000FF" stroke-width="0.25" /><line x1="346.59518" y1="275.7252" x2="358.39517" y2="275.7252" stroke="#FF0000FF" stroke-width="0.2" /><rect x="346.59518" y="270.7252" width="2.0799866" height="2" fill="#FF0000FF" stroke="none" stroke-width="0" /><rect x="355.99518" y="278.68518" width="2.399994" height="2.0400085" fill="#FF0000FF" stroke="none" stroke-width="0" /><text x="346.59518" y="275.7252" fill="#C86496FF" font-size="40" font-family="bravura" text-anchor="start" dominant-baseline="baseline"></text><line x1="347.09518" y1="277.40518" x2="347.09518" y2="327.40518" stroke="#C86496FF" stroke-width="1" /><rect x="383.1952" y="280.7252" width="11.799988" height="10" fill="#00000000" stroke="#FF0000FF" stroke-width="0.25" /><line x1="383.1952" y1="285.7252" x2="394.99518" y2="285.7252" stroke="#FF0000FF" stroke-width="0.2" /><rect x="383.1952" y="280.7252" width="2.0799866" height="2" fill="#FF0000FF" stroke="none" stroke-width="0" /><rect x="392.59518" y="288.68518" width="2.399994" height="2.0400085" fill="#FF0000FF" stroke="none" stroke-width="0" /><text x="383.1952" y="285.7252" fill="#C86496FF" font-size="40" font-family="bravura" text-anchor="start" dominant-baseline="baseline"></text><line x1="383.6952" y1="287.40518" x2="383.6952" y2="326.28305" stroke="#C86496FF" stroke-width="1" /><rect x="407.7952" y="360.7252" width="11.799988" height="10" fill="#00000000" stroke="#FF0000FF" stroke-width="0.25" /><line x1="407.7952" y1="365.7252" x2="419.59518" y2="365.7252" stroke="#FF0000FF" stroke-width="0.2" /><rect x="407.7952" y="360.7252" width="2.0799866" height="2" fill="#FF0000FF" stroke="none" stroke-width="0" /><rect x="417.1952" y="368.68518" width="2.399994" height="2.0400085" fill="#FF0000FF" stroke="none" stroke-width="0" /><text x="407.7952" y="365.7252" fill="#C86496FF" font-size="40" font-family="bravura" text-anchor="start" dominant-baseline="baseline"></text><line x1="419.09518" y1="364.0452" x2="419.09518" y2="325.16702" stroke="#C86496FF" stroke-width="1" /><rect x="444.3852" y="370.7252" width="11.799988" height="10" fill="#00000000" stroke="#FF0000FF" stroke-width="0.25" /><line x1="444.3852" y1="375.7252" x2="456.18518" y2="375.7252" stroke="#FF0000FF" stroke-width="0.2" /><rect x="444.3852" y="370.7252" width="2.0799866" height="2" fill="#FF0000FF" stroke="none" stroke-width="0" /><rect x="453.7852" y="378.68518" width="2.399994" height="2.0400085" fill="#FF0000FF" stroke="none" stroke-width="0" /><text x="444.3852" y="375.7252" fill="#C86496FF" font-size="40" font-family="bravura" text-anchor="start" dominant-baseline="baseline"></text><line x1="455.68518" y1="374.0452" x2="455.68518" y2="324.0452" stroke="#C86496FF" stroke-width="1" /><rect x="499.2852" y="375.7252" width="11.799988" height="10" fill="#00000000" stroke="#FF0000FF" stroke-width="0.25" /><line x1="499.2852" y1="380.7252" x2="511.08517" y2="380.7252" stroke="#FF0000FF" stroke-width="0.2" /><rect x="499.2852" y="375.7252" width="2.0799866" height="2" fill="#FF0000FF" stroke="none" stroke-width="0" /><rect x="508.68518" y="383.68518" width="2.399994" height="2.0400085" fill="#FF0000FF" stroke="none" stroke-width="0" /><text x="499.2852" y="380.7252" fill="#C86496FF" font-size="40" font-family="bravura" text-anchor="start" dominant-baseline="baseline"></text><line x1="510.58517" y1="379.0452" x2="510.58517" y2="329.0452" stroke="#C86496FF" stroke-width="1" /><rect x="547.8752" y="275.7252" width="11.799988" height="10" fill="#00000000" stroke="#FF0000FF" stroke-width="0.25" /><line x1="547.8752" y1="280.7252" x2="559.6752" y2="280.7252" stroke="#FF0000FF" stroke-width="0.2" /><rect x="547.8752" y="275.7252" width="2.080017" height="2" fill="#FF0000FF" stroke="none" stroke-width="0" /><rect x="557.2752" y="283.68518" width="2.3999634" height="2.0400085" fill="#FF0000FF" stroke="none" stroke-width="0" /><text x="547.8752" y="280.7252" fill="#C86496FF" font-size="40" font-family="bravura" text-anchor="start" dominant-baseline="baseline"></text><line x1="548.3752" y1="282.40518" x2="548.3752" y2="321.50522" stroke="#C86496FF" stroke-width="1" /><rect x="572.4752" y="360.7252" width="11.799988" height="10" fill="#00000000" stroke="#FF0000FF" stroke-width="0.25" /><line x1="572.4752" y1="365.7252" x2="584.2752" y2="365.7252" stroke="#FF0000FF" stroke-width="0.2" /><rect x="572.4752" y="360.7252" width="2.080017" height="2" fill="#FF0000FF" stroke="none" stroke-width="0" /><rect x="581.87524" y="368.68518" width="2.3999634" height="2.0400085" fill="#FF0000FF" stroke="none" stroke-width="0" /><text x="572.4752" y="365.7252" fill="#C86496FF" font-size="40" font-family="bravura" text-anchor="start" dominant-baseline="baseline"></text><line x1="583.7752" y1="364.0452" x2="583.7752" y2="314.0452" stroke="#C86496FF" stroke-width="1" /><rect x="627.36523" y="360.7252" width="11.799988" height="10" fill="#00000000" stroke="#FF0000FF" stroke-width="0.25" /><line x1="627.36523" y1="365.7252" x2="639.1652" y2="365.7252" stroke="#FF0000FF" stroke-width="0.2" /><rect x="627.36523" y="360.7252" width="2.080017" height="2" fill="#FF0000FF" stroke="none" stroke-width="0" /><rect x="636.76526" y="368.68518" width="2.3999634" height="2.0400085" fill="#FF0000FF" stroke="none" stroke-width="0" /><text x="627.36523" y="365.7252" fill="#C86496FF" font-size="40" font-family="bravura" text-anchor="start" dominant-baseline="baseline"></text><line x1="638.6652" y1="364.0452" x2="638.6652" y2="314.0452" stroke="#C86496FF" stroke-width="1" /><rect x="675.9552" y="260.7252" width="11.799988" height="10" fill="#00000000" stroke="#FF0000FF" stroke-width="0.25" /><line x1="675.9552" y1="265.7252" x2="687.7552" y2="265.7252" stroke="#FF0000FF" stroke-width="0.2" /><rect x="675.9552" y="260.7252" width="2.080017" height="2" fill="#FF0000FF" stroke="none" stroke-width="0" /><rect x="685.3552" y="268.68518" width="2.3999634" height="2.0400085" fill="#FF0000FF" stroke="none" stroke-width="0" /><text x="675.9552" y="265.7252" fill="#C86496FF" font-size="40" font-family="bravura" text-anchor="start" dominant-baseline="baseline"></text><line x1="676.4552" y1="267.40518" x2="676.4552" y2="330.76837" stroke="#C86496FF" stroke-width="1" /><rect x="712.5552" y="290.7252" width="11.799988" height="10" fill="#00000000" stroke="#FF0000FF" stroke-width="0.25" /><line x1="712.5552" y1="295.7252" x2="724.35516" y2="295.7252" stroke="#FF0000FF" stroke-width="0.2" /><rect x="712.5552" y="290.7252" width="2.080017" height="2" fill="#FF0000FF" stroke="none" stroke-width="0" /><rect x="721.9552" y="298.68518" width="2.3999634" height="2.0400085" fill="#FF0000FF" stroke="none" stroke-width="0" /><text x="712.5552" y="295.7252" fill="#C86496FF" font-size="40" font-family="bravura" text-anchor="start" dominant-baseline="baseline"></text><line x1="713.0552" y1="297.40518" x2="713.0552" y2="347.40518" stroke="#C86496FF" stroke-width="1" /><rect x="806.1652" y="240.72519" width="11.799988" height="10" fill="#00000000" stroke="#FF0000FF" stroke-width="0.25" /><line x1="806.1652" y1="245.72519" x2="817.9652" y2="245.72519" stroke="#FF0000FF" stroke-width="0.2" /><rect x="806.1652" y="240.72519" width="2.080017" height="2" fill="#FF0000FF" stroke="none" stroke-width="0" /><rect x="815.56525" y="248.6852" width="2.3999634" height="2.0399933" fill="#FF0000FF" stroke="none" stroke-width="0" /><text x="806.1652" y="245.72519" fill="#C86496FF" font-size="40" font-family="bravura" text-anchor="start" dominant-baseline="baseline"></text><line x1="806.6652" y1="247.40518" x2="806.6652" y2="297.40518" stroke="#C86496FF" stroke-width="1" /><rect x="828.26526" y="240.72519" width="11.799988" height="10" fill="#00000000" stroke="#FF0000FF" stroke-width="0.25" /><line x1="828.26526" y1="245.72519" x2="840.06525" y2="245.72519" stroke="#FF0000FF" stroke-width="0.2" /><rect x="828.26526" y="240.72519" width="2.080017" height="2" fill="#FF0000FF" stroke="none" stroke-width="0" /><rect x="837.6653" y="248.6852" width="2.3999634" height="2.0399933" fill="#FF0000FF" stroke="none" stroke-width="0" /><text x="828.26526" y="245.72519" fill="#C86496FF" font-size="40" font-family="bravura" text-anchor="start" dominant-baseline="baseline"></text><line x1="828.76526" y1="247.40518" x2="828.76526" y2="297.40518" stroke="#C86496FF" stroke-width="1" /><rect x="850.3552" y="240.72519" width="11.799988" height="10" fill="#00000000" stroke="#FF0000FF" stroke-width="0.25" /><line x1="850.3552" y1="245.72519" x2="862.1552" y2="245.72519" stroke="#FF0000FF" stroke-width="0.2" /><rect x="850.3552" y="240.72519" width="2.080017" height="2" fill="#FF0000FF" stroke="none" stroke-width="0" /><rect x="859.75525" y="248.6852" width="2.3999634" height="2.0399933" fill="#FF0000FF" stroke="none" stroke-width="0" /><text x="850.3552" y="245.72519" fill="#C86496FF" font-size="40" font-family="bravura" text-anchor="start" dominant-baseline="baseline"></text><line x1="850.8552" y1="247.40518" x2="850.8552" y2="297.40518" stroke="#C86496FF" stroke-width="1" /><rect x="872.44525" y="240.72519" width="11.799988" height="10" fill="#00000000" stroke="#FF0000FF" stroke-width="0.25" /><line x1="872.44525" y1="245.72519" x2="884.24524" y2="245.72519" stroke="#FF0000FF" stroke-width="0.2" /><rect x="872.44525" y="240.72519" width="2.080017" height="2" fill="#FF0000FF" stroke="none" stroke-width="0" /><rect x="881.8453" y="248.6852" width="2.3999634" height="2.0399933" fill="#FF0000FF" stroke="none" stroke-width="0" /><text x="872.44525" y="245.72519" fill="#C86496FF" font-size="40" font-family="bravura" text-anchor="start" dominant-baseline="baseline"></text><line x1="872.94525" y1="247.40518" x2="872.94525" y2="297.40518" stroke="#C86496FF" stroke-width="1" /><rect x="894.5452" y="240.72519" width="11.799988" height="10" fill="#00000000" stroke="#FF0000FF" stroke-width="0.25" /><line x1="894.5452" y1="245.72519" x2="906.3452" y2="245.72519" stroke="#FF0000FF" stroke-width="0.2" /><rect x="894.5452" y="240.72519" width="2.080017" height="2" fill="#FF0000FF" stroke="none" stroke-width="0" /><rect x="903.94525" y="248.6852" width="2.3999634" height="2.0399933" fill="#FF0000FF" stroke="none" stroke-width="0" /><text x="894.5452" y="245.72519" fill="#C86496FF" font-size="40" font-family="bravura" text-anchor="start" dominant-baseline="baseline"></text><line x1="895.0452" y1="247.40518" x2="895.0452" y2="297.40518" stroke="#C86496FF" stroke-width="1" /><rect x="916.63525" y="240.72519" width="11.799988" height="10" fill="#00000000" stroke="#FF0000FF" stroke-width="0.25" /><line x1="916.63525" y1="245.72519" x2="928.43524" y2="245.72519" stroke="#FF0000FF" stroke-width="0.2" /><rect x="916.63525" y="240.72519" width="2.080017" height="2" fill="#FF0000FF" stroke="none" stroke-width="0" /><rect x="926.0353" y="248.6852" width="2.3999634" height="2.0399933" fill="#FF0000FF" stroke="none" stroke-width="0" /><text x="916.63525" y="245.72519" fill="#C86496FF" font-size="40" font-family="bravura" text-anchor="start" dominant-baseline="baseline"></text><line x1="917.13525" y1="247.40518" x2="917.13525" y2="295.73877" stroke="#C86496FF" stroke-width="1" /><rect x="938.7352" y="235.72519" width="11.799988" height="10" fill="#00000000" stroke="#FF0000FF" stroke-width="0.25" /><line x1="938.7352" y1="240.72519" x2="950.5352" y2="240.72519" stroke="#FF0000FF" stroke-width="0.2" /><rect x="938.7352" y="235.72519" width="2.080017" height="2" fill="#FF0000FF" stroke="none" stroke-width="0" /><rect x="948.13525" y="243.6852" width="2.3999634" height="2.0399933" fill="#FF0000FF" stroke="none" stroke-width="0" /><text x="938.7352" y="240.72519" fill="#C86496FF" font-size="40" font-family="bravura" text-anchor="start" dominant-baseline="baseline"></text><line x1="939.2352" y1="242.40518" x2="939.2352" y2="294.0716" stroke="#C86496FF" stroke-width="1" /><rect x="960.82526" y="235.72519" width="11.799988" height="10" fill="#00000000" stroke="#FF0000FF" stroke-width="0.25" /><line x1="960.82526" y1="240.72519" x2="972.62524" y2="240.72519" stroke="#FF0000FF" stroke-width="0.2" /><rect x="960.82526" y="235.72519" width="2.080017" height="2" fill="#FF0000FF" stroke="none" stroke-width="0" /><rect x="970.2253" y="243.6852" width="2.3999634" height="2.0399933" fill="#FF0000FF" stroke="none" stroke-width="0" /><text x="960.82526" y="240.72519" fill="#C86496FF" font-size="40" font-family="bravura" text-anchor="start" dominant-baseline="baseline"></text><line x1="961.32526" y1="242.40518" x2="961.32526" y2="292.40518" stroke="#C86496FF" stroke-width="1" /><rect x="982.9152" y="235.72519" width="11.799988" height="10" fill="#00000000" stroke="#FF0000FF" stroke-width="0.25" /><line x1="982.9152" y1="240.72519" x2="994.7152" y2="240.72519" stroke="#FF0000FF" stroke-width="0.2" /><rect x="982.9152" y="235.72519" width="2.080017" height="2" fill="#FF0000FF" stroke="none" stroke-width="0" /><rect x="992.31525" y="243.6852" width="2.3999634" height="2.0399933" fill="#FF0000FF" stroke="none" stroke-width="0" /><text x="982.9152" y="240.72519" fill="#C86496FF" font-size="40" font-family="bravura" text-anchor="start" dominant-baseline="baseline"></text><line x1="983.4152" y1="242.40518" x2="983.4152" y2="292.40518" stroke="#C86496FF" stroke-width="1" /><rect x="1005.01526" y="230.72519" width="11.799988" height="10" fill="#00000000" stroke="#FF0000FF" stroke-width="0.25" /><line x1="1005.01526" y1="235.72519" x2="1016.81525" y2="235.72519" stroke="#FF0000FF" stroke-width="0.2" /><rect x="1005.01526" y="230.72519" width="2.080017" height="2" fill="#FF0000FF" stroke="none" stroke-width="0" /><rect x="1014.4153" y="238.6852" width="2.3999634" height="2.0399933" fill="#FF0000FF" stroke="none" stroke-width="0" /><text x="1005.01526" y="235.72519" fill="#C86496FF" font-size="40" font-family="bravura" text-anchor="start" dominant-baseline="baseline"></text><line x1="1005.51526" y1="237.40518" x2="1005.51526" y2="285.7375" stroke="#C86496FF" stroke-width="1" /><rect x="1027.1052" y="220.72519" width="11.800049" height="10" fill="#00000000" stroke="#FF0000FF" stroke-width="0.25" /><line x1="1027.1052" y1="225.72519" x2="1038.9053" y2="225.72519" stroke="#FF0000FF" stroke-width="0.2" /><rect x="1027.1052" y="220.72519" width="2.079956" height="2" fill="#FF0000FF" stroke="none" stroke-width="0" /><rect x="1036.5052" y="228.6852" width="2.4000244" height="2.0399933" fill="#FF0000FF" stroke="none" stroke-width="0" /><text x="1027.1052" y="225.72519" fill="#C86496FF" font-size="40" font-family="bravura" text-anchor="start" dominant-baseline="baseline"></text><line x1="1027.6052" y1="227.40518" x2="1027.6052" y2="279.07285" stroke="#C86496FF" stroke-width="1" /><rect x="1049.2052" y="215.72519" width="11.800049" height="10" fill="#00000000" stroke="#FF0000FF" stroke-width="0.25" /><line x1="1049.2052" y1="220.72519" x2="1061.0052" y2="220.72519" stroke="#FF0000FF" stroke-width="0.2" /><rect x="1049.2052" y="215.72519" width="2.079956" height="2" fill="#FF0000FF" stroke="none" stroke-width="0" /><rect x="1058.6052" y="223.6852" width="2.4000244" height="2.0399933" fill="#FF0000FF" stroke="none" stroke-width="0" /><text x="1049.2052" y="220.72519" fill="#C86496FF" font-size="40" font-family="bravura" text-anchor="start" dominant-baseline="baseline"></text><line x1="1049.7052" y1="222.40518" x2="1049.7052" y2="272.40518" stroke="#C86496FF" stroke-width="1" /></svg>